<svg xmlns="http://www.w3.org/2000/svg" width="856" height="856" viewBox="0 0 856 856">
<g transform="translate(0,856) scale(0.1,-0.1)" fill="#000000" stroke="none">
<path d="M1929 6784 c-1632 -1634 -1511 -1514 -1521 -1514 -5 0 -8 -4 -8 -9 0 -5 -15 -24 -32 -43 -48 -49 -78 -87 -78 -97 0 -5 -4 -11 -9 -13 -29 -11 -161 -285 -161 -335 0 -11 -3 -23 -7 -27 -4 -3 -8 -14 -9 -24 -2 -9 -6 -33 -10 -52 -26 -133 -22 -304 12 -445 8 -33 16 -69 19 -80 18 -75 98 -234 163 -325 47 -65 517 -550 533 -550 9 0 2623 2599 2686 2671 17 20 48 61 69 90 21 30 41 56 44 59 12 11 81 131 118 205 34 68 84 194 98 245 62 236 69 284 69 500 0 96 -3 195 -8 220 -4 25 -9 56 -11 70 -11 63 -17 96 -23 110 -3 8 -7 22 -9 30 -1 8 -5 22 -7 30 -2 8 -8 30 -12 48 -4 18 -12 35 -16 38 -5 3 -9 14 -9 25 0 10 -4 27 -8 37 -5 9 -18 37 -29 62 -46 100 -87 177 -114 218 -16 24 -29 45 -29 48 0 5 -55 78 -77 102 -7 7 -13 16 -13 20 0 9 -134 152 -142 152 -3 0 -664 -660 -1469 -1466z"/>
<path d="M5030 8183 c-34 -37 -70 -79 -78 -93 -9 -14 -19 -27 -23 -30 -13 -10 -97 -147 -138 -223 -42 -80 -112 -254 -127 -317 -10 -43 -8 -37 -21 -85 -24 -86 -37 -211 -38 -360 0 -150 8 -237 31 -350 21 -101 20 -97 26 -115 3 -8 20 -57 38 -109 64 -191 177 -385 325 -558 5 -6 378 -381 828 -832 449 -451 817 -822 817 -826 0 -3 -363 -369 -806 -813 -443 -444 -838 -845 -878 -892 -65 -76 -171 -227 -169 -240 0 -3 -7 -16 -16 -30 -25 -35 -84 -161 -84 -177 0 -7 -4 -13 -9 -13 -4 0 -8 -8 -8 -18 0 -10 -3 -22 -7 -26 -5 -4 -8 -11 -9 -14 0 -4 -9 -34 -19 -67 -10 -33 -20 -64 -21 -70 -40 -154 -52 -267 -49 -450 4 -202 6 -229 41 -370 36 -145 72 -243 132 -360 14 -27 32 -63 40 -79 19 -38 106 -169 124 -187 8 -8 21 -24 29 -36 29 -42 113 -133 122 -133 11 0 3117 3104 3117 3114 0 4 7 14 15 23 26 25 90 123 133 203 62 114 110 248 138 384 25 121 25 386 0 506 -51 245 -157 463 -311 638 -16 19 -619 623 -1338 1341 -719 718 -1403 1402 -1520 1518 -117 117 -215 213 -218 213 -3 0 -34 -30 -69 -67z"/>
<path d="M2610 4242 c-454 -455 -833 -839 -842 -853 -9 -14 -23 -32 -30 -40 -25 -25 -136 -218 -143 -249 -10 -38 -19 -67 -26 -76 -9 -11 -34 -113 -45 -184 -10 -59 -10 -295 -1 -340 4 -19 10 -51 14 -70 10 -58 11 -62 41 -145 39 -107 122 -265 164 -309 11 -12 34 -41 51 -65 33 -45 1589 -1611 1601 -1611 7 0 43 38 111 115 42 49 150 214 192 295 35 67 85 183 89 203 1 4 3 9 4 12 1 3 3 8 5 13 1 4 5 14 8 22 8 20 37 121 42 151 3 13 7 35 10 49 13 62 16 79 22 140 9 83 8 318 -1 390 -13 102 -56 292 -75 335 -5 11 -19 46 -31 78 -40 114 -116 251 -217 393 -50 72 -79 104 -241 267 l-126 128 239 238 c269 266 274 272 332 357 59 87 144 264 135 281 -1 2 5 18 13 38 14 31 23 73 29 129 1 12 5 26 8 31 8 13 3 303 -6 335 -3 14 -9 38 -12 55 -19 106 -92 273 -167 385 -48 71 -294 331 -313 329 -5 0 -380 -372 -834 -827z"/>
</g>
</svg>
